{
	"asset":{
		"generator":"Khronos glTF Blender I/O v5.1.20",
		"version":"2.0"
	},
	"scene":0,
	"scenes":[
		{
			"name":"Scene",
			"nodes":[
				0
			]
		}
	],
	"nodes":[
		{
			"mesh":0,
			"name":"Chub Bones"
		}
	],
	"meshes":[
		{
			"name":"Salmon Mesh.009",
			"primitives":[
				{
					"attributes":{
						"POSITION":0,
						"NORMAL":1,
						"TEXCOORD_0":2
					},
					"indices":3
				}
			]
		}
	],
	"accessors":[
		{
			"bufferView":0,
			"componentType":5126,
			"count":241,
			"max":[
				0.19273680448532104,
				0.32478681206703186,
				0.6443652510643005
			],
			"min":[
				-0.19273680448532104,
				-0.33033236861228943,
				-0.42815038561820984
			],
			"type":"VEC3"
		},
		{
			"bufferView":1,
			"componentType":5126,
			"count":241,
			"type":"VEC3"
		},
		{
			"bufferView":2,
			"componentType":5126,
			"count":241,
			"type":"VEC2"
		},
		{
			"bufferView":3,
			"componentType":5123,
			"count":339,
			"type":"SCALAR"
		}
	],
	"bufferViews":[
		{
			"buffer":0,
			"byteLength":2892,
			"byteOffset":0,
			"target":34962
		},
		{
			"buffer":0,
			"byteLength":2892,
			"byteOffset":2892,
			"target":34962
		},
		{
			"buffer":0,
			"byteLength":1928,
			"byteOffset":5784,
			"target":34962
		},
		{
			"buffer":0,
			"byteLength":678,
			"byteOffset":7712,
			"target":34963
		}
	],
	"buffers":[
		{
			"byteLength":8392,
			"uri":"Chub%20Bones.bin"
		}
	]
}
