{
	"asset":{
		"generator":"Khronos glTF Blender I/O v5.1.20",
		"version":"2.0"
	},
	"scene":0,
	"scenes":[
		{
			"name":"Scene",
			"nodes":[
				0
			]
		}
	],
	"nodes":[
		{
			"mesh":0,
			"name":"Cod Bones"
		}
	],
	"materials":[
		{
			"doubleSided":true,
			"name":"Fish_Material",
			"pbrMetallicRoughness":{
				"baseColorTexture":{
					"index":0
				},
				"metallicFactor":0,
				"roughnessFactor":0.30000001192092896
			}
		}
	],
	"meshes":[
		{
			"name":"Cod Bones Mesh",
			"primitives":[
				{
					"attributes":{
						"POSITION":0,
						"NORMAL":1,
						"TEXCOORD_0":2
					},
					"indices":3,
					"material":0
				}
			]
		}
	],
	"textures":[
		{
			"sampler":0,
			"source":0
		}
	],
	"images":[
		{
			"mimeType":"image/png",
			"name":"fish-texture",
			"uri":"fish-texture.png"
		}
	],
	"accessors":[
		{
			"bufferView":0,
			"componentType":5126,
			"count":309,
			"max":[
				0.15919768810272217,
				0.220363587141037,
				0.6674842834472656
			],
			"min":[
				-0.15919768810272217,
				-0.2196817845106125,
				-0.5398576855659485
			],
			"type":"VEC3"
		},
		{
			"bufferView":1,
			"componentType":5126,
			"count":309,
			"type":"VEC3"
		},
		{
			"bufferView":2,
			"componentType":5126,
			"count":309,
			"type":"VEC2"
		},
		{
			"bufferView":3,
			"componentType":5123,
			"count":510,
			"type":"SCALAR"
		}
	],
	"bufferViews":[
		{
			"buffer":0,
			"byteLength":3708,
			"byteOffset":0,
			"target":34962
		},
		{
			"buffer":0,
			"byteLength":3708,
			"byteOffset":3708,
			"target":34962
		},
		{
			"buffer":0,
			"byteLength":2472,
			"byteOffset":7416,
			"target":34962
		},
		{
			"buffer":0,
			"byteLength":1020,
			"byteOffset":9888,
			"target":34963
		}
	],
	"samplers":[
		{
			"magFilter":9728,
			"minFilter":9984
		}
	],
	"buffers":[
		{
			"byteLength":10908,
			"uri":"Cod%20Bones.bin"
		}
	]
}
