{
	"asset":{
		"generator":"Khronos glTF Blender I/O v5.1.20",
		"version":"2.0"
	},
	"scene":0,
	"scenes":[
		{
			"name":"Scene",
			"nodes":[
				0
			]
		}
	],
	"nodes":[
		{
			"mesh":0,
			"name":"Hammerhead Bones"
		}
	],
	"meshes":[
		{
			"name":"Cod Mesh.003",
			"primitives":[
				{
					"attributes":{
						"POSITION":0,
						"NORMAL":1,
						"TEXCOORD_0":2
					},
					"indices":3
				}
			]
		}
	],
	"accessors":[
		{
			"bufferView":0,
			"componentType":5126,
			"count":781,
			"max":[
				0.8469467759132385,
				0.5204560160636902,
				2.4295921325683594
			],
			"min":[
				-0.8469467759132385,
				-0.3302689790725708,
				-1.501082420349121
			],
			"type":"VEC3"
		},
		{
			"bufferView":1,
			"componentType":5126,
			"count":781,
			"type":"VEC3"
		},
		{
			"bufferView":2,
			"componentType":5126,
			"count":781,
			"type":"VEC2"
		},
		{
			"bufferView":3,
			"componentType":5123,
			"count":1119,
			"type":"SCALAR"
		}
	],
	"bufferViews":[
		{
			"buffer":0,
			"byteLength":9372,
			"byteOffset":0,
			"target":34962
		},
		{
			"buffer":0,
			"byteLength":9372,
			"byteOffset":9372,
			"target":34962
		},
		{
			"buffer":0,
			"byteLength":6248,
			"byteOffset":18744,
			"target":34962
		},
		{
			"buffer":0,
			"byteLength":2238,
			"byteOffset":24992,
			"target":34963
		}
	],
	"buffers":[
		{
			"byteLength":27232,
			"uri":"Hammerhead%20Bones.bin"
		}
	]
}
