{
	"asset":{
		"generator":"Khronos glTF Blender I/O v5.1.20",
		"version":"2.0"
	},
	"scene":0,
	"scenes":[
		{
			"name":"Scene",
			"nodes":[
				0
			]
		}
	],
	"nodes":[
		{
			"mesh":0,
			"name":"Perch Bones"
		}
	],
	"meshes":[
		{
			"name":"Salmon Mesh.008",
			"primitives":[
				{
					"attributes":{
						"POSITION":0,
						"NORMAL":1,
						"TEXCOORD_0":2
					},
					"indices":3
				}
			]
		}
	],
	"accessors":[
		{
			"bufferView":0,
			"componentType":5126,
			"count":251,
			"max":[
				0.22188203036785126,
				0.24377790093421936,
				0.3659137785434723
			],
			"min":[
				-0.22188203036785126,
				-0.2351529449224472,
				-0.24993640184402466
			],
			"type":"VEC3"
		},
		{
			"bufferView":1,
			"componentType":5126,
			"count":251,
			"type":"VEC3"
		},
		{
			"bufferView":2,
			"componentType":5126,
			"count":251,
			"type":"VEC2"
		},
		{
			"bufferView":3,
			"componentType":5123,
			"count":351,
			"type":"SCALAR"
		}
	],
	"bufferViews":[
		{
			"buffer":0,
			"byteLength":3012,
			"byteOffset":0,
			"target":34962
		},
		{
			"buffer":0,
			"byteLength":3012,
			"byteOffset":3012,
			"target":34962
		},
		{
			"buffer":0,
			"byteLength":2008,
			"byteOffset":6024,
			"target":34962
		},
		{
			"buffer":0,
			"byteLength":702,
			"byteOffset":8032,
			"target":34963
		}
	],
	"buffers":[
		{
			"byteLength":8736,
			"uri":"Perch%20Bones.bin"
		}
	]
}
