{
	"asset":{
		"generator":"Khronos glTF Blender I/O v5.1.20",
		"version":"2.0"
	},
	"extensionsUsed":[
		"KHR_materials_specular"
	],
	"scene":0,
	"scenes":[
		{
			"name":"Scene",
			"nodes":[
				1
			]
		}
	],
	"nodes":[
		{
			"mesh":0,
			"name":"Crate",
			"rotation":[
				0.7071068286895752,
				0,
				0,
				0.7071068286895752
			]
		},
		{
			"children":[
				0
			],
			"name":"Crate.001"
		}
	],
	"materials":[
		{
			"doubleSided":true,
			"extensions":{
				"KHR_materials_specular":{
					"specularFactor":0
				}
			},
			"name":"Crate_Material",
			"pbrMetallicRoughness":{
				"baseColorTexture":{
					"index":0
				},
				"metallicFactor":0
			}
		}
	],
	"meshes":[
		{
			"name":"Crate.003",
			"primitives":[
				{
					"attributes":{
						"POSITION":0,
						"NORMAL":1,
						"TEXCOORD_0":2
					},
					"indices":3,
					"material":0
				}
			]
		}
	],
	"textures":[
		{
			"sampler":0,
			"source":0
		}
	],
	"images":[
		{
			"mimeType":"image/png",
			"name":"Crate_Texture",
			"uri":"Crate_Texture.png"
		}
	],
	"accessors":[
		{
			"bufferView":0,
			"componentType":5126,
			"count":352,
			"max":[
				0.30000007152557373,
				0.375,
				0
			],
			"min":[
				-0.2999999523162842,
				-0.375,
				-0.75
			],
			"type":"VEC3"
		},
		{
			"bufferView":1,
			"componentType":5126,
			"count":352,
			"type":"VEC3"
		},
		{
			"bufferView":2,
			"componentType":5126,
			"count":352,
			"type":"VEC2"
		},
		{
			"bufferView":3,
			"componentType":5123,
			"count":702,
			"type":"SCALAR"
		}
	],
	"bufferViews":[
		{
			"buffer":0,
			"byteLength":4224,
			"byteOffset":0,
			"target":34962
		},
		{
			"buffer":0,
			"byteLength":4224,
			"byteOffset":4224,
			"target":34962
		},
		{
			"buffer":0,
			"byteLength":2816,
			"byteOffset":8448,
			"target":34962
		},
		{
			"buffer":0,
			"byteLength":1404,
			"byteOffset":11264,
			"target":34963
		}
	],
	"samplers":[
		{
			"magFilter":9729,
			"minFilter":9987
		}
	],
	"buffers":[
		{
			"byteLength":12668,
			"uri":"Crate.bin"
		}
	]
}
